<?xml version="1.0" encoding="UTF-8" standalone="no"?>
<svg
   xmlns:dc="http://purl.org/dc/elements/1.1/"
   xmlns:cc="http://creativecommons.org/ns#"
   xmlns:rdf="http://www.w3.org/1999/02/22-rdf-syntax-ns#"
   xmlns:svg="http://www.w3.org/2000/svg"
   xmlns="http://www.w3.org/2000/svg"
   xmlns:sodipodi="http://sodipodi.sourceforge.net/DTD/sodipodi-0.dtd"
   xmlns:inkscape="http://www.inkscape.org/namespaces/inkscape"
   viewBox="0 0 480.84 88.253334"
   height="88.253334"
   width="480.84"
   xml:space="preserve"
   id="svg2"
   version="1.1"
   sodipodi:docname="logikorlogo-whitesvg.svg"
   inkscape:version="1.0.1 (3bc2e813f5, 2020-09-07)"><sodipodi:namedview
     pagecolor="#ffffff"
     bordercolor="#666666"
     borderopacity="1"
     objecttolerance="10"
     gridtolerance="10"
     guidetolerance="10"
     inkscape:pageopacity="0"
     inkscape:pageshadow="2"
     inkscape:window-width="1920"
     inkscape:window-height="1017"
     id="namedview24"
     showgrid="false"
     inkscape:zoom="2.167041"
     inkscape:cx="240.42"
     inkscape:cy="44.126667"
     inkscape:window-x="1912"
     inkscape:window-y="-8"
     inkscape:window-maximized="1"
     inkscape:current-layer="g10" /><metadata
     id="metadata8"><rdf:RDF><cc:Work
         rdf:about=""><dc:format>image/svg+xml</dc:format><dc:type
           rdf:resource="http://purl.org/dc/dcmitype/StillImage" /><dc:title></dc:title></cc:Work></rdf:RDF></metadata><defs
     id="defs6" /><g
     transform="matrix(1.3333333,0,0,-1.3333333,0,88.253333)"
     id="g10"><g
       transform="scale(0.1)"
       id="g12"
       style="stroke-width:0;stroke-miterlimit:4;stroke-dasharray:none;stroke:none;stroke-opacity:1;fill:#ffffff;fill-opacity:1"><path
         id="path14"
         style="fill:#ffffff;fill-opacity:1;fill-rule:nonzero;stroke:none;stroke-width:0;stroke-miterlimit:4;stroke-dasharray:none;stroke-opacity:1"
         d="M 66.4219,126.406 H 215.281 V 70.5742 H 6.30469 V 610.223 H 66.4219 V 126.406" /><path
         id="path16"
         style="fill:#ffffff;stroke:none;stroke-width:0;stroke-linecap:butt;stroke-linejoin:miter;stroke-miterlimit:4;stroke-dasharray:none;stroke-opacity:1;fill-opacity:1"
         d="M 66.4219,126.406 H 215.281 V 70.5742 H 6.30469 V 610.223 H 66.4219 Z" /><path
         id="path18"
         style="fill:#ffffff;fill-opacity:1;fill-rule:nonzero;stroke:none;stroke-width:0;stroke-miterlimit:4;stroke-dasharray:none;stroke-opacity:1"
         d="m 379.18,340.391 c 0,-121.661 98.765,-223.282 221.148,-223.282 122.391,0 221.156,101.621 221.156,223.282 0,122.39 -97.339,223.3 -221.156,223.3 -123.808,0 -221.148,-100.91 -221.148,-223.3 z m 502.422,-0.711 c 0,-155.305 -127.403,-278.4105 -281.274,-278.4105 -153.875,0 -281.265,123.1055 -281.265,278.4105 0,154.59 127.39,279.832 281.265,279.832 153.871,0 281.274,-125.242 281.274,-279.832" /><path
         id="path20"
         style="fill:#ffffff;stroke:none;stroke-width:0;stroke-linecap:butt;stroke-linejoin:miter;stroke-miterlimit:4;stroke-dasharray:none;stroke-opacity:1;fill-opacity:1"
         d="m 379.18,340.391 c 0,-121.661 98.765,-223.282 221.148,-223.282 122.391,0 221.156,101.621 221.156,223.282 0,122.39 -97.339,223.3 -221.156,223.3 -123.808,0 -221.148,-100.91 -221.148,-223.3 z m 502.422,-0.711 c 0,-155.305 -127.403,-278.4105 -281.274,-278.4105 -153.875,0 -281.265,123.1055 -281.265,278.4105 0,154.59 127.39,279.832 281.265,279.832 153.871,0 281.274,-125.242 281.274,-279.832 z" /><path
         id="path22"
         style="fill:#ffffff;fill-opacity:1;fill-rule:nonzero;stroke:none;stroke-width:0;stroke-miterlimit:4;stroke-dasharray:none;stroke-opacity:1"
         d="m 1536.47,341.836 c 1.43,-73.008 -6.45,-133.125 -55.82,-190.383 -49.4,-57.2655 -124.55,-90.1835 -199.69,-90.1835 -151.73,0 -277.69,125.9645 -277.69,277.6955 0,154.59 125.96,280.547 281.28,280.547 94.46,0 171.05,-42.215 228.31,-116.653 L 1469.2,462.07 c -45.1,63.692 -105.93,101.621 -185.37,101.621 -123.1,0 -220.44,-103.769 -220.44,-225.437 0,-57.27 22.91,-111.645 62.97,-152.445 39.38,-39.364 96.63,-68.7 153.16,-68.7 93.77,0 192.54,68.7 192.54,168.887 h -160.33 v 55.84 h 224.74" /><path
         id="path24"
         style="fill:#ffffff;stroke:none;stroke-width:0;stroke-linecap:butt;stroke-linejoin:miter;stroke-miterlimit:4;stroke-dasharray:none;stroke-opacity:1;fill-opacity:1"
         d="m 1536.47,341.836 c 1.43,-73.008 -6.45,-133.125 -55.82,-190.383 -49.4,-57.2655 -124.55,-90.1835 -199.69,-90.1835 -151.73,0 -277.69,125.9645 -277.69,277.6955 0,154.59 125.96,280.547 281.28,280.547 94.46,0 171.05,-42.215 228.31,-116.653 L 1469.2,462.07 c -45.1,63.692 -105.93,101.621 -185.37,101.621 -123.1,0 -220.44,-103.769 -220.44,-225.437 0,-57.27 22.91,-111.645 62.97,-152.445 39.38,-39.364 96.63,-68.7 153.16,-68.7 93.77,0 192.54,68.7 192.54,168.887 h -160.33 v 55.84 z" /><path
         id="path26"
         style="fill:#ffffff;fill-opacity:1;fill-rule:nonzero;stroke:none;stroke-width:0;stroke-miterlimit:4;stroke-dasharray:none;stroke-opacity:1"
         d="m 1754.76,70.5742 h -60.13 V 610.223 h 60.13 V 70.5742" /><path
         id="path28"
         style="fill:#ffffff;stroke:none;stroke-width:0;stroke-linecap:butt;stroke-linejoin:miter;stroke-miterlimit:4;stroke-dasharray:none;stroke-opacity:1;fill-opacity:1"
         d="m 1754.76,70.5742 h -60.13 V 610.223 h 60.13 z" /><path
         id="path30"
         style="fill:#ffffff;fill-opacity:1;fill-rule:nonzero;stroke:none;stroke-width:0;stroke-miterlimit:4;stroke-dasharray:none;stroke-opacity:1"
         d="m 2225.69,610.223 h 80.87 L 2053.2,359.016 2315.15,70.5742 h -83.04 L 2010.97,318.203 1995.95,303.184 V 70.5742 h -60.13 V 610.223 h 60.13 v -231.18 l 229.74,231.18" /><path
         id="path32"
         style="fill:#ffffff;stroke:none;stroke-width:0;stroke-linecap:butt;stroke-linejoin:miter;stroke-miterlimit:4;stroke-dasharray:none;stroke-opacity:1;fill-opacity:1"
         d="m 2225.69,610.223 h 80.87 L 2053.2,359.016 2315.15,70.5742 h -83.04 L 2010.97,318.203 1995.95,303.184 V 70.5742 h -60.13 V 610.223 h 60.13 v -231.18 z" /><path
         id="path34"
         style="fill:#ffffff;fill-opacity:1;fill-rule:nonzero;stroke:none;stroke-width:0;stroke-miterlimit:4;stroke-dasharray:none;stroke-opacity:1"
         d="m 3193.3,360.438 h 18.61 c 67.99,0 136.7,12.882 136.7,96.621 0,88.742 -65.14,97.328 -137.42,97.328 h -17.89 z m 0,-289.8638 h -60.12 V 610.223 h 78.01 c 102.36,0 197.54,-27.196 197.54,-148.875 0,-83.02 -52.25,-141.7 -135.26,-148.868 L 3445.23,70.5742 h -73.71 L 3208.33,307.473 H 3193.3 V 70.5742" /><path
         id="path36"
         style="fill:#ffffff;stroke:none;stroke-width:0;stroke-linecap:butt;stroke-linejoin:miter;stroke-miterlimit:4;stroke-dasharray:none;stroke-opacity:1;fill-opacity:1"
         d="m 3193.3,360.438 h 18.61 c 67.99,0 136.7,12.882 136.7,96.621 0,88.742 -65.14,97.328 -137.42,97.328 h -17.89 z m 0,-289.8638 h -60.12 V 610.223 h 78.01 c 102.36,0 197.54,-27.196 197.54,-148.875 0,-83.02 -52.25,-141.7 -135.26,-148.868 L 3445.23,70.5742 h -73.71 L 3208.33,307.473 h -15.03 z" /><path
         id="path38"
         style="fill:#ffffff;fill-opacity:1;fill-rule:nonzero;stroke:none;stroke-opacity:1;stroke-width:0;stroke-miterlimit:4;stroke-dasharray:none"
         d="m 3529.53,566.047 c 10.02,0 27.61,-1.899 27.61,10.953 0,8.32 -10.97,9.855 -19.66,9.855 h -21.57 v -20.808 z m 37.83,-48.606 h -13.63 l -24.2,37.254 h -13.62 v -37.254 h -11.34 v 80.75 h 35.17 c 14.55,0 28.75,-3.972 28.75,-21.355 0,-15.898 -11.17,-21.758 -25.53,-22.141 z m 27.6,39.911 c 0,34.796 -28.93,62.394 -62.78,62.394 -33.85,0 -62.79,-27.598 -62.79,-62.394 0,-34.801 28.94,-62.418 62.79,-62.418 33.85,0 62.78,27.617 62.78,62.418 z m -136.92,0 c 0,41.027 32.72,73.753 74.14,73.753 41.41,0 74.12,-32.726 74.12,-73.753 0,-41.043 -32.71,-73.758 -74.12,-73.758 -41.42,0 -74.14,32.715 -74.14,73.758" /><path
         id="path40"
         style="fill:#ffffff;fill-opacity:1;fill-rule:nonzero;stroke:none;stroke-opacity:1;stroke-width:0;stroke-miterlimit:4;stroke-dasharray:none"
         d="m 2670.56,343.301 c 0.04,0.008 0.12,0.019 0.16,0.039 l 0.53,0.105 c 103.08,24.453 227.96,43.926 352.2,56.02 -31.56,149.91 -164.55,262.449 -323.87,262.449 -9.76,0 -19.45,-0.422 -29.02,-1.25 V 343.301" /><path
         id="path42"
         style="fill:#ffffff;fill-opacity:1;fill-rule:nonzero;stroke:none;stroke-opacity:1;stroke-width:0;stroke-miterlimit:4;stroke-dasharray:none"
         d="m 3028.22,370.398 c -133.03,-16.66 -253.03,-39.097 -354.05,-69.128 -0.97,-0.301 -1.97,-0.594 -2.92,-0.887 0.8,-21.047 2.42,-38.352 5.33,-51.594 4.35,-19.656 12.48,-37.375 25.02,-47.578 33.22,-27.078 79.51,-37.527 161.01,-36.965 h 122.95 c 28.61,48.957 44.98,105.918 44.98,166.723 0,13.34 -0.78,26.504 -2.32,39.429" /><path
         id="path44"
         style="fill:#ffffff;fill-opacity:1;fill-rule:nonzero;stroke:none;stroke-opacity:1;stroke-width:0;stroke-miterlimit:4;stroke-dasharray:none"
         d="m 2548.75,311.102 v 314.503 c -106.96,-54.843 -180.12,-166.203 -180.12,-294.636 0,-28.781 3.67,-56.684 10.56,-83.285 47.29,22.621 104.92,44.043 169.56,63.418" /><path
         id="path46"
         style="fill:#ffffff;fill-opacity:1;fill-rule:nonzero;stroke:none;stroke-opacity:1;stroke-width:0;stroke-miterlimit:4;stroke-dasharray:none"
         d="m 2839.27,77.3516 c -57.38,0 -106.31,2.6367 -140.43,11.8203 -34.12,9.1953 -63.96,23.8871 -89.82,46.5121 -17.91,15.683 -35.45,38.261 -45.54,66.074 -6.15,16.98 -9.85,35.5 -12.06,58.281 -63.44,-24.641 -106.11,-48.269 -139.82,-73.613 -1.8,-0.086 -5.72,-0.281 -9.57,-0.508 C 2455.78,75.8203 2568.84,0 2699.58,0 c 80.98,0 155.16,29.0703 212.66,77.3516 h -72.97" /></g></g></svg>
