<?xml version="1.0" encoding="UTF-8" standalone="no"?>
<svg
   xmlns:dc="http://purl.org/dc/elements/1.1/"
   xmlns:cc="http://creativecommons.org/ns#"
   xmlns:rdf="http://www.w3.org/1999/02/22-rdf-syntax-ns#"
   xmlns:svg="http://www.w3.org/2000/svg"
   xmlns="http://www.w3.org/2000/svg"
   xmlns:sodipodi="http://sodipodi.sourceforge.net/DTD/sodipodi-0.dtd"
   xmlns:inkscape="http://www.inkscape.org/namespaces/inkscape"
   width="34.101616mm"
   height="16.130976mm"
   viewBox="0 0 34.101616 16.130976"
   version="1.1"
   id="svg9623"
   inkscape:version="1.0.1 (3bc2e813f5, 2020-09-07)"
   sodipodi:docname="TruckSide.svg">
  <defs
     id="defs9617">
    <clipPath
       clipPathUnits="userSpaceOnUse"
       id="clipPath12054">
      <path
         d="M 0,120 H 120 V 0 H 0 Z"
         id="path12052" />
    </clipPath>
  </defs>
  <sodipodi:namedview
     id="base"
     pagecolor="#ffffff"
     bordercolor="#666666"
     borderopacity="1.0"
     inkscape:pageopacity="0.0"
     inkscape:pageshadow="2"
     inkscape:zoom="0.28281609"
     inkscape:cx="344.22453"
     inkscape:cy="215.68185"
     inkscape:document-units="mm"
     inkscape:current-layer="layer1"
     inkscape:document-rotation="0"
     showgrid="false"
     inkscape:window-width="1267"
     inkscape:window-height="1040"
     inkscape:window-x="2076"
     inkscape:window-y="0"
     inkscape:window-maximized="0" />
  <metadata
     id="metadata9620">
    <rdf:RDF>
      <cc:Work
         rdf:about="">
        <dc:format>image/svg+xml</dc:format>
        <dc:type
           rdf:resource="http://purl.org/dc/dcmitype/StillImage" />
        <dc:title></dc:title>
      </cc:Work>
    </rdf:RDF>
  </metadata>
  <g
     inkscape:label="Layer 1"
     inkscape:groupmode="layer"
     id="layer1"
     transform="translate(-14.757259,-91.100843)">
    <g
       id="g12050"
       clip-path="url(#clipPath12054)"
       transform="matrix(0.35277777,0,0,-0.35277777,10.371667,120.23055)">
      <g
         id="g12056"
         transform="translate(103.6766,58.5944)">
        <path
           d="m 0,0 h -19.205 c -0.739,0 -1.338,0.599 -1.338,1.338 v 10.663 c 0,0.739 0.599,1.338 1.338,1.338 h 8.748 c 0.392,0 0.764,-0.172 1.019,-0.47 L 0.536,1.16 C 0.925,0.703 0.6,0 0,0 m 3.889,2.795 -10.93,13.511 c -0.302,0.374 -0.757,0.591 -1.238,0.591 h -15.064 c -0.879,0 -1.592,-0.713 -1.592,-1.592 v -25.16 h -2.415 v 32.083 c 0,0.966 -0.783,1.75 -1.75,1.75 h -60.395 c -0.967,0 -1.75,-0.784 -1.75,-1.75 v -37.45 c 0,-0.967 0.783,-1.75 1.75,-1.75 h 9.338 c 0,3.425 2.777,6.203 6.203,6.203 3.426,0 6.203,-2.778 6.203,-6.203 h 39.742 0.659 2.415 4.392 5.27 c 0,3.425 2.777,6.203 6.203,6.203 3.425,0 6.202,-2.778 6.202,-6.203 h 6.697 c 0.88,0 1.592,0.712 1.592,1.592 v 13.846 c 0,1.576 -0.54,3.104 -1.532,4.329"
           style="fill:#FFEA00;fill-opacity:1;fill-rule:nonzero;stroke:none"
           id="path12058" />
      </g>
      <g
         id="g12060"
         transform="translate(94.6061,46.3978)">
        <path
           d="m 0,0 c -2.638,0 -4.776,-2.138 -4.776,-4.776 0,-2.637 2.138,-4.775 4.776,-4.775 2.638,0 4.776,2.138 4.776,4.775 C 4.776,-2.138 2.638,0 0,0"
           style="fill:#FFEA00;fill-opacity:1;fill-rule:nonzero;stroke:none"
           id="path12062" />
      </g>
      <g
         id="g12064"
         transform="translate(29.7226,46.3978)">
        <path
           d="m 0,0 c -2.638,0 -4.776,-2.138 -4.776,-4.776 0,-2.637 2.138,-4.775 4.776,-4.775 2.638,0 4.776,2.138 4.776,4.775 C 4.776,-2.138 2.638,0 0,0"
           style="fill:#FFEA00;fill-opacity:1;fill-rule:nonzero;stroke:none"
           id="path12066" />
      </g>
    </g>
  </g>
</svg>
